<svg width="99" height="99" viewBox="0 0 99 99" fill="none" xmlns="http://www.w3.org/2000/svg">
<path d="M5 23C5 13.0589 13.0589 5 23 5H81C90.9411 5 99 13.0589 99 23V77C99 89.1503 89.1503 99 77 99H23C13.0589 99 5 90.9411 5 81V23Z" fill="#FF7F00"/>
<path d="M0 18C0 8.05887 8.05888 0 18 0H76C85.9411 0 94 8.05888 94 18V76C94 85.9411 85.9411 94 76 94H18C8.05887 94 0 85.9411 0 76V18Z" fill="#1E1E1E"/>
<path d="M18.4314 33.7606C18.4314 32.0686 19.5124 30.8466 21.1574 30.8466C22.8494 30.8466 23.9304 32.0686 23.9304 33.7606V38.1316H28.0194C29.7114 38.1316 30.8864 39.0716 30.8864 40.6696C30.8864 42.2676 29.7114 43.2076 28.0194 43.2076H23.9304V52.7016C23.9304 55.4746 25.1994 56.4616 26.9384 56.4616H28.2074C29.8054 56.4616 30.8864 57.3546 30.8864 59.0466C30.8864 60.7386 29.8054 61.6316 28.2074 61.6316H26.7504C21.9094 61.6316 18.4314 59.1876 18.4314 52.7486V43.2076H17.0214C15.3764 43.2076 14.1544 42.2676 14.1544 40.6696C14.1544 39.0716 15.3764 38.1316 17.0214 38.1316H18.4314V33.7606ZM62.8001 38.1316C65.5261 38.1316 66.1371 40.3876 65.5261 41.9386L58.9461 59.6576C58.4291 61.0676 57.3951 61.6316 56.2671 61.6316C54.7161 61.6316 53.9641 60.6916 53.5411 59.4696L49.6401 48.0016L45.7391 59.5166C45.3631 60.6446 44.5641 61.6316 43.0601 61.6316C41.8851 61.6316 40.8511 61.0676 40.3341 59.6576L33.7541 41.9386C33.1901 40.3876 33.8011 38.1316 36.5271 38.1316C37.2321 38.1316 38.5011 38.3196 38.9711 40.0116L43.1541 53.6886L47.1021 40.6696C47.5251 39.4006 48.3241 38.6016 49.6871 38.6016C51.0031 38.6016 51.8021 39.4006 52.1781 40.6696L56.1261 53.6416L60.3091 40.0116C60.8261 38.3196 62.0481 38.1316 62.8001 38.1316Z" fill="white"/>
<path d="M68 60H83" stroke="#FF7F00" stroke-width="4" stroke-linecap="round"/>
</svg>
