<svg width="335" height="70" viewBox="0 0 335 70" fill="none" xmlns="http://www.w3.org/2000/svg">
<path d="M3.67615 16.5431C3.67615 9.43694 9.43682 3.67627 16.543 3.67627H56.9815C64.0877 3.67627 69.8484 9.43694 69.8484 16.5431V53.3054C69.8484 62.4419 62.4418 69.8485 53.3053 69.8485H16.543C9.43682 69.8485 3.67615 64.0878 3.67615 56.9817V16.5431Z" fill="#FF7F00"/>
<rect width="66.1722" height="66.1722" rx="12.8668" fill="#1E1E1E"/>
<path d="M12.9955 24.4086C12.9955 23.2175 13.7564 22.3573 14.9144 22.3573C16.1055 22.3573 16.8665 23.2175 16.8665 24.4086V27.4856H19.745C20.9361 27.4856 21.7633 28.1474 21.7633 29.2723C21.7633 30.3972 20.9361 31.0589 19.745 31.0589H16.8665V37.7423C16.8665 39.6944 17.7599 40.3892 18.984 40.3892H19.8774C21.0023 40.3892 21.7633 41.0179 21.7633 42.209C21.7633 43.4001 21.0023 44.0287 19.8774 44.0287H18.8517C15.4438 44.0287 12.9955 42.3082 12.9955 37.7754V31.0589H12.0029C10.8449 31.0589 9.98462 30.3972 9.98462 29.2723C9.98462 28.1474 10.8449 27.4856 12.0029 27.4856H12.9955V24.4086ZM44.2293 27.4856C46.1482 27.4856 46.5784 29.0738 46.1482 30.1656L41.5162 42.6391C41.1522 43.6317 40.4243 44.0287 39.6303 44.0287C38.5384 44.0287 38.0091 43.367 37.7113 42.5067L34.9651 34.4337L32.219 42.5398C31.9543 43.3339 31.3918 44.0287 30.3331 44.0287C29.5059 44.0287 28.778 43.6317 28.4141 42.6391L23.782 30.1656C23.385 29.0738 23.8151 27.4856 25.7341 27.4856C26.2304 27.4856 27.1237 27.618 27.4546 28.8091L30.3993 38.4371L33.1785 29.2723C33.4763 28.379 34.0387 27.8165 34.9982 27.8165C35.9246 27.8165 36.4871 28.379 36.7518 29.2723L39.531 38.404L42.4757 28.8091C42.8396 27.618 43.6999 27.4856 44.2293 27.4856Z" fill="white"/>
<path d="M47.791 42.2767H58.3184" stroke="#FF7F00" stroke-width="3.00783" stroke-linecap="round"/>
<path d="M102.749 20.9265C104.261 20.9265 105.269 21.8925 105.269 23.3205C105.269 24.7065 104.261 25.6725 102.749 25.6725H96.9532V45.7065C96.9532 47.2185 95.9872 48.3525 94.4332 48.3525C92.8792 48.3525 91.9132 47.2185 91.9132 45.7065V25.6725H86.1172C84.6472 25.6725 83.5972 24.7065 83.5972 23.3205C83.5972 21.8925 84.6472 20.9265 86.1172 20.9265H102.749ZM119.535 35.6265C119.535 33.1065 117.435 31.1325 114.495 31.1325C111.765 31.1325 109.665 32.8545 108.993 35.6265H119.535ZM103.827 37.8525C103.827 31.4685 108.531 27.0165 114.537 27.0165C120.207 27.0165 124.365 30.9645 124.365 35.2905C124.365 39.1125 121.551 39.4485 120.753 39.4485H108.951C109.623 42.5985 112.059 44.3205 115.041 44.3205C116.637 44.3205 117.981 43.8165 118.905 43.1865C119.745 42.5985 120.291 42.5145 120.711 42.5145C122.307 42.5145 122.895 43.7325 122.895 44.7825C122.895 45.4965 122.601 46.1685 121.467 46.8825C119.955 47.8905 117.603 48.6885 114.831 48.6885C108.111 48.6885 103.827 43.9845 103.827 37.8525ZM142.083 33.2745C140.949 32.0985 139.563 31.5105 137.757 31.5105C134.145 31.5105 131.793 34.1985 131.793 37.8525C131.793 41.5065 134.145 44.1945 137.757 44.1945C139.563 44.1945 141.075 43.5225 142.209 42.3465C142.671 41.8005 143.259 41.5905 143.889 41.5905C145.107 41.5905 146.241 42.5145 146.241 44.0265C146.241 44.6565 146.031 45.1605 145.527 45.6645C143.931 47.3865 141.033 48.6885 137.631 48.6885C131.499 48.6885 126.837 44.0685 126.837 37.8525C126.837 31.5945 131.499 27.0165 137.715 27.0165C141.033 27.0165 143.847 28.2345 145.359 29.8725C145.905 30.4185 146.115 30.9645 146.115 31.6365C146.115 32.9805 145.065 33.9885 143.763 33.9885C143.091 33.9885 142.545 33.7365 142.083 33.2745ZM161.085 27.0165C165.201 27.0165 169.149 29.4105 169.149 35.5845V45.7485C169.149 47.2605 168.183 48.3525 166.671 48.3525C165.201 48.3525 164.193 47.2605 164.193 45.7485V35.7105C164.193 32.7705 162.513 31.5525 159.783 31.5525C155.835 31.5525 154.701 33.9045 154.701 35.1645V45.7485C154.701 47.2605 153.735 48.3525 152.223 48.3525C150.753 48.3525 149.787 47.2605 149.787 45.7485V21.4305C149.787 19.9185 150.753 18.8265 152.223 18.8265C153.735 18.8265 154.701 19.9185 154.701 21.4305V29.7465H154.953C156.003 28.2765 158.229 27.0165 161.085 27.0165ZM202.725 20.9265C205.035 20.9265 205.539 22.9425 204.993 24.4965L197.685 46.4625C197.223 47.8065 196.215 48.5205 195.081 48.5205C193.821 48.5205 192.897 47.8905 192.393 46.4205L187.815 32.9805L183.237 46.4205C182.733 47.8905 181.809 48.5205 180.549 48.5205C179.415 48.5205 178.407 47.8065 177.945 46.4625L170.679 24.5385C170.049 22.8165 171.057 20.9265 172.989 20.9265C174.123 20.9265 175.131 21.4725 175.509 22.7325L180.759 40.7925L185.253 25.9665C185.631 24.7065 186.681 23.9925 187.815 23.9925C188.949 23.9925 189.999 24.7065 190.377 25.9245L194.871 40.7925L200.247 22.6905C200.625 21.3885 201.591 20.9265 202.725 20.9265ZM220.515 35.6265C220.515 33.1065 218.415 31.1325 215.475 31.1325C212.745 31.1325 210.645 32.8545 209.973 35.6265H220.515ZM204.807 37.8525C204.807 31.4685 209.511 27.0165 215.517 27.0165C221.187 27.0165 225.345 30.9645 225.345 35.2905C225.345 39.1125 222.531 39.4485 221.733 39.4485H209.931C210.603 42.5985 213.039 44.3205 216.021 44.3205C217.617 44.3205 218.961 43.8165 219.885 43.1865C220.725 42.5985 221.271 42.5145 221.691 42.5145C223.287 42.5145 223.875 43.7325 223.875 44.7825C223.875 45.4965 223.581 46.1685 222.447 46.8825C220.935 47.8905 218.583 48.6885 215.811 48.6885C209.091 48.6885 204.807 43.9845 204.807 37.8525ZM233.58 30.0405C234.588 28.6965 236.646 27.0165 239.88 27.0165C245.466 27.0165 249.918 31.1745 249.918 37.6005C249.918 43.9845 245.466 48.6885 238.956 48.6885C233.118 48.6885 228.414 45.2445 228.414 39.3645V21.4305C228.414 19.9185 229.38 18.8265 230.85 18.8265C232.362 18.8265 233.328 19.9185 233.328 21.4305V30.0405H233.58ZM233.328 39.0705C233.328 42.5565 235.596 44.1945 238.914 44.1945C243.198 44.1945 244.962 41.4645 244.962 37.8105C244.962 33.6105 242.862 31.3845 239.208 31.3845C235.806 31.3845 233.328 33.2745 233.328 36.6765V39.0705ZM258.053 32.8125C258.053 36.5085 269.519 34.7865 269.519 42.0525C269.519 45.8325 266.285 48.6885 261.035 48.6885C257.129 48.6885 254.399 47.0925 253.139 45.6645C252.635 45.0765 252.341 44.5305 252.341 43.8585C252.341 42.6405 253.307 41.6745 254.525 41.6745C255.323 41.6745 255.869 42.0525 256.205 42.4305C257.255 43.6485 258.809 44.6145 261.203 44.6145C263.471 44.6145 264.731 43.6905 264.731 42.4725C264.731 38.8605 253.391 40.3305 253.391 33.1485C253.391 29.1165 257.045 27.0165 260.993 27.0165C263.681 27.0165 266.579 27.9405 268.091 29.4945C268.469 29.9145 268.805 30.3345 268.805 31.0485C268.805 32.3085 267.881 33.2325 266.705 33.2325C266.243 33.2325 265.781 33.1065 265.403 32.7705C264.017 31.5945 262.547 31.0485 260.951 31.0485C259.145 31.0485 258.053 31.6785 258.053 32.8125ZM274.823 23.4465C274.823 21.9345 275.789 20.8425 277.259 20.8425C278.771 20.8425 279.737 21.9345 279.737 23.4465V27.3525H283.391C284.903 27.3525 285.953 28.1925 285.953 29.6205C285.953 31.0485 284.903 31.8885 283.391 31.8885H279.737V40.3725C279.737 42.8505 280.871 43.7325 282.425 43.7325H283.559C284.987 43.7325 285.953 44.5305 285.953 46.0425C285.953 47.5545 284.987 48.3525 283.559 48.3525H282.257C277.931 48.3525 274.823 46.1685 274.823 40.4145V31.8885H273.563C272.093 31.8885 271.001 31.0485 271.001 29.6205C271.001 28.1925 272.093 27.3525 273.563 27.3525H274.823V23.4465ZM303.613 35.6265C303.613 33.1065 301.513 31.1325 298.573 31.1325C295.843 31.1325 293.743 32.8545 293.071 35.6265H303.613ZM287.905 37.8525C287.905 31.4685 292.609 27.0165 298.615 27.0165C304.285 27.0165 308.443 30.9645 308.443 35.2905C308.443 39.1125 305.629 39.4485 304.831 39.4485H293.029C293.701 42.5985 296.137 44.3205 299.119 44.3205C300.715 44.3205 302.059 43.8165 302.983 43.1865C303.823 42.5985 304.369 42.5145 304.789 42.5145C306.385 42.5145 306.973 43.7325 306.973 44.7825C306.973 45.4965 306.679 46.1685 305.545 46.8825C304.033 47.8905 301.681 48.6885 298.909 48.6885C292.189 48.6885 287.905 43.9845 287.905 37.8525ZM323.608 27.1845C324.826 27.5205 325.624 28.4025 325.624 29.5365C325.624 30.8805 324.574 31.9305 323.23 31.9305C323.062 31.9305 322.768 31.8885 322.558 31.8045C322.18 31.7205 321.802 31.6785 321.256 31.6785C318.358 31.6785 316.3 33.3165 316.3 37.1805V45.7485C316.3 47.2605 315.334 48.3525 313.822 48.3525C312.31 48.3525 311.344 47.2605 311.344 45.7485V29.9565C311.344 28.4445 312.31 27.3525 313.822 27.3525C315.25 27.3525 316.132 28.3185 316.216 29.7465V30.2505H316.384C317.476 28.2765 319.912 26.9745 321.97 26.9745C322.516 26.9745 323.02 27.0165 323.608 27.1845Z" fill="white"/>
<path d="M328.654 48.3525C327.016 48.3525 325.714 47.0085 325.714 45.3705C325.714 43.7325 327.016 42.3885 328.654 42.3885C330.334 42.3885 331.636 43.7325 331.636 45.3705C331.636 47.0085 330.334 48.3525 328.654 48.3525Z" fill="#FF7F00"/>
</svg>
