<svg width="1200" height="630" viewBox="0 0 1200 630" fill="none" xmlns="http://www.w3.org/2000/svg">
  <defs>
    <linearGradient id="bg" x1="120" y1="48" x2="1052" y2="630" gradientUnits="userSpaceOnUse">
      <stop stop-color="#13161F"/>
      <stop offset="0.6" stop-color="#0B0E14"/>
      <stop offset="1" stop-color="#05070B"/>
    </linearGradient>
    <radialGradient id="glowA" cx="0" cy="0" r="1" gradientUnits="userSpaceOnUse" gradientTransform="translate(888 146) rotate(151.195) scale(543.257 334.225)">
      <stop stop-color="#FF7F00" stop-opacity="0.35"/>
      <stop offset="1" stop-color="#FF7F00" stop-opacity="0"/>
    </radialGradient>
    <radialGradient id="glowB" cx="0" cy="0" r="1" gradientUnits="userSpaceOnUse" gradientTransform="translate(230 542) rotate(-20.412) scale(458.561 278.733)">
      <stop stop-color="#334155" stop-opacity="0.48"/>
      <stop offset="1" stop-color="#334155" stop-opacity="0"/>
    </radialGradient>
    <linearGradient id="cardStroke" x1="288" y1="140" x2="1040" y2="536" gradientUnits="userSpaceOnUse">
      <stop stop-color="#FFFFFF" stop-opacity="0.12"/>
      <stop offset="1" stop-color="#FFFFFF" stop-opacity="0.03"/>
    </linearGradient>
    <linearGradient id="accent" x1="0" y1="0" x2="1" y2="1">
      <stop stop-color="#FF7F00"/>
      <stop offset="1" stop-color="#FFB35B"/>
    </linearGradient>
  </defs>

  <rect width="1200" height="630" rx="36" fill="url(#bg)"/>
  <rect width="1200" height="630" rx="36" fill="url(#glowA)"/>
  <rect width="1200" height="630" rx="36" fill="url(#glowB)"/>

  <g opacity="0.2">
    <path d="M0 91H1200" stroke="#FFFFFF" stroke-opacity="0.08"/>
    <path d="M0 183H1200" stroke="#FFFFFF" stroke-opacity="0.05"/>
    <path d="M0 275H1200" stroke="#FFFFFF" stroke-opacity="0.05"/>
    <path d="M0 367H1200" stroke="#FFFFFF" stroke-opacity="0.05"/>
    <path d="M0 459H1200" stroke="#FFFFFF" stroke-opacity="0.05"/>
    <path d="M0 551H1200" stroke="#FFFFFF" stroke-opacity="0.08"/>
    <path d="M133 0V630" stroke="#FFFFFF" stroke-opacity="0.05"/>
    <path d="M320 0V630" stroke="#FFFFFF" stroke-opacity="0.04"/>
    <path d="M507 0V630" stroke="#FFFFFF" stroke-opacity="0.04"/>
    <path d="M694 0V630" stroke="#FFFFFF" stroke-opacity="0.04"/>
    <path d="M881 0V630" stroke="#FFFFFF" stroke-opacity="0.04"/>
    <path d="M1068 0V630" stroke="#FFFFFF" stroke-opacity="0.05"/>
  </g>

  <rect x="58" y="58" width="1084" height="514" rx="32" fill="#0D1017" fill-opacity="0.8" stroke="url(#cardStroke)"/>

  <g>
    <rect x="102" y="106" width="102" height="102" rx="24" fill="#1E1E1E"/>
    <path d="M107.152 124.059C107.152 113.461 115.744 104.869 126.342 104.869H169.454C180.052 104.869 188.644 113.461 188.644 124.059V163.776C188.644 176.734 178.138 187.24 165.18 187.24H126.342C115.744 187.24 107.152 178.648 107.152 168.05V124.059Z" fill="#FF7F00"/>
    <path d="M100 116.907C100 106.309 108.592 97.7169 119.19 97.7169H162.302C172.9 97.7169 181.492 106.309 181.492 116.907V160.019C181.492 170.617 172.9 179.209 162.302 179.209H119.19C108.592 179.209 100 170.617 100 160.019V116.907Z" fill="#1E1E1E"/>
    <path d="M119.491 132.645C119.491 130.841 120.643 129.54 122.399 129.54C124.204 129.54 125.355 130.841 125.355 132.645V137.304H129.725C131.529 137.304 132.782 138.306 132.782 140.009C132.782 141.713 131.529 142.714 129.725 142.714H125.355V152.824C125.355 155.78 126.707 156.832 128.561 156.832H129.914C131.617 156.832 132.769 157.783 132.769 159.587C132.769 161.392 131.617 162.343 129.914 162.343H128.36C123.202 162.343 119.491 159.738 119.491 152.874V142.714H117.988C116.233 142.714 114.93 141.713 114.93 140.009C114.93 138.306 116.233 137.304 117.988 137.304H119.491V132.645Z" fill="white"/>
    <path d="M166.766 137.304C169.672 137.304 170.323 139.709 169.672 141.362L162.656 160.258C162.105 161.761 161.003 162.362 159.801 162.362C158.148 162.362 157.347 161.361 156.896 160.058L152.738 147.835L148.58 160.108C148.179 161.31 147.328 162.362 145.725 162.362C144.472 162.362 143.37 161.761 142.818 160.258L135.802 141.362C135.201 139.709 135.852 137.304 138.758 137.304C139.509 137.304 140.862 137.504 141.363 139.308L145.822 153.885L150.03 140.009C150.481 138.656 151.333 137.805 152.785 137.805C154.188 137.805 155.039 138.656 155.44 140.009L159.648 153.835L164.107 139.308C164.658 137.504 165.96 137.304 166.766 137.304Z" fill="white"/>
    <path d="M172.305 160.621H188.368" stroke="#FF7F00" stroke-width="4.6972" stroke-linecap="round"/>
  </g>

  <text x="234" y="144" fill="#FFB35B" font-size="20" font-family="Helvetica, Arial, sans-serif" font-weight="700" letter-spacing="5.4">TECHWEBSTER</text>
  <text x="234" y="202" fill="#F8FAFC" font-size="56" font-family="Helvetica, Arial, sans-serif" font-weight="700">TW Drive</text>
  <text x="234" y="256" fill="#D5DBE5" font-size="21" font-family="Helvetica, Arial, sans-serif" font-weight="600">Private cloud storage for modern teams.</text>

  <text x="102" y="336" fill="#F8FAFC" font-size="32" font-family="Helvetica, Arial, sans-serif" font-weight="700">Private folder access</text>
  <text x="102" y="378" fill="#F8FAFC" font-size="32" font-family="Helvetica, Arial, sans-serif" font-weight="700">Encrypted sharing</text>
  <text x="102" y="420" fill="#F8FAFC" font-size="32" font-family="Helvetica, Arial, sans-serif" font-weight="700">Protected business files</text>

  <text x="102" y="486" fill="#FFB35B" font-size="17" font-family="Helvetica, Arial, sans-serif" font-weight="700" letter-spacing="2.8">CONTACT</text>

  <g>
    <rect x="102" y="504" width="292" height="40" rx="20" fill="#151922" stroke="#FFFFFF" stroke-opacity="0.08"/>
    <circle cx="134" cy="524" r="7" fill="#FF7F00"/>
    <text x="158" y="531" fill="#F8FAFC" font-size="16" font-family="Helvetica, Arial, sans-serif" font-weight="700">info@techwebster.com</text>
  </g>

  <g>
    <rect x="410" y="504" width="276" height="40" rx="20" fill="#151922" stroke="#FFFFFF" stroke-opacity="0.08"/>
    <circle cx="442" cy="524" r="7" fill="#FFB35B"/>
    <text x="466" y="531" fill="#F8FAFC" font-size="16" font-family="Helvetica, Arial, sans-serif" font-weight="700">hr@techwebster.com</text>
  </g>

  <g>
    <rect x="702" y="504" width="252" height="40" rx="20" fill="#151922" stroke="#FFFFFF" stroke-opacity="0.08"/>
    <circle cx="734" cy="524" r="7" fill="#FFE0B2"/>
    <text x="758" y="531" fill="#F8FAFC" font-size="16" font-family="Helvetica, Arial, sans-serif" font-weight="700">+91 7008614546</text>
  </g>

  <g>
    <rect x="846" y="154" width="268" height="324" rx="28" fill="#10141D" stroke="#FFFFFF" stroke-opacity="0.06"/>
    <rect x="892" y="202" width="176" height="106" rx="22" fill="#0A0D14"/>
    <rect x="910" y="220" width="140" height="70" rx="18" fill="#0E1320"/>
    <path d="M930 258C950 239 972.333 229.5 997 229.5C1020.33 229.5 1041 238 1059 255" stroke="url(#accent)" stroke-width="8" stroke-linecap="round"/>
    <circle cx="930" cy="258" r="14" fill="#FFB35B"/>
    <circle cx="930" cy="258" r="6" fill="#FFE7B8"/>
    <circle cx="995" cy="227" r="12" fill="#FF7F00"/>
    <circle cx="1057" cy="255" r="14" fill="#FFC56E"/>
    <circle cx="1057" cy="255" r="6" fill="#FFE7B8"/>
    <path d="M995 227L995 247" stroke="#FF9A1F" stroke-width="4" stroke-linecap="round" opacity="0.9"/>
    <circle cx="948" cy="234" r="5" fill="#FFD08A" fill-opacity="0.9"/>
    <path d="M930 258L948 234" stroke="#FFB35B" stroke-width="3" stroke-linecap="round" opacity="0.38"/>
    <path d="M892 346H1068" stroke="#FFFFFF" stroke-opacity="0.08"/>
    <text x="878" y="386" fill="#FFB35B" font-size="14" font-family="Helvetica, Arial, sans-serif" font-weight="700" letter-spacing="1.8">BUILT FOR PRIVATE TEAMS</text>
    <circle cx="886" cy="410" r="8" fill="#FF7F00"/>
    <text x="908" y="417" fill="#F8FAFC" font-size="15" font-family="Helvetica, Arial, sans-serif" font-weight="700">Voice-free secure access</text>
    <circle cx="886" cy="444" r="8" fill="#FFB35B"/>
    <text x="908" y="451" fill="#F8FAFC" font-size="15" font-family="Helvetica, Arial, sans-serif" font-weight="700">AI-assisted file control</text>
  </g>

  <path d="M786 116C834 136.667 878.333 169.333 919 214" stroke="url(#accent)" stroke-width="3.5" stroke-linecap="round" stroke-dasharray="6 14" opacity="0.72"/>
  <circle cx="786" cy="116" r="8" fill="#FF7F00"/>
  <circle cx="919" cy="214" r="8" fill="#FFB35B"/>
</svg>
